<?xml version="1.0" encoding="iso-8859-1"?>
<!-- Generator: Adobe Illustrator 16.0.0, SVG Export Plug-In . SVG Version: 6.00 Build 0)  -->
<!DOCTYPE svg PUBLIC "-//W3C//DTD SVG 1.1//EN" "http://www.w3.org/Graphics/SVG/1.1/DTD/svg11.dtd">
<svg version="1.1" id="Capa_1" xmlns="http://www.w3.org/2000/svg" xmlns:xlink="http://www.w3.org/1999/xlink" x="0px" y="0px"
	 width="218.315px" height="218.315px" viewBox="0 0 218.315 218.315" style="enable-background:new 0 0 218.315 218.315;"
	 xml:space="preserve">
<g>
	<path d="M149.884,0l5.42,11.901l3.239-11.543l2.157,12.619c12.992,10.459,9.741,15.87,9.741,15.87l8.665,10.096
		c7.578,8.305,0,14.074,0,14.074c-6.147,7.572-15.516-2.893-15.516-2.893c-7.95-0.37-11.91-2.888-11.91-2.888
		c5.036,10.823,2.157,31.747,2.157,31.747c13.695,6.135,10.823,20.197,10.823,20.197c1.087,18.031,23.808,8.29,23.808,8.29
		c14.068-3.605,23.815,16.243,23.815,16.243c6.845,5.408,5.42,17.307,5.42,17.307c2.157,12.992-5.42,10.468-5.42,10.468
		c-12.638-7.938-5.048-11.189-5.048-11.189c4.687-0.366,4.338-2.884,4.338-2.884c-4.699-3.605-12.637-18.4-12.637-18.4
		c-5.408-3.251-11.916,1.082-11.916,1.082c-10.817,8.665-27.042,6.495-27.042,6.495c-9.387-1.447-10.816,4.327-10.816,4.327
		c-6.484,10.468,1.081,25.611,1.081,25.611c4.327,4.67,6.142,14.789,6.142,14.789c1.437,16.236,12.992,28.856,12.992,28.856
		c10.45,9.74,2.878,12.271,2.878,12.271h-8.281c-6.88,0.36-3.972-11.195-3.972-11.195c-5.426-1.431-5.06-5.048-5.06-5.048
		l-9.374-26.338c-15.865-17.674-18.028-31.387-18.028-31.387c-10.096,9.741-45.806,6.136-45.806,6.136
		c-3.62,8.299-14.067,11.538-14.067,11.538c1.091,7.589-1.084,12.265-1.084,12.265c-7.22,12.985,12.989,14.067,12.989,14.067
		c9.014-0.727,18.4,16.592,18.4,16.592c6.121,10.107-7.947,6.862-7.947,6.862c-9.732,0-2.154-9.741-2.154-9.741
		c-0.724-4.676-10.459-7.938-10.459-7.938c-11.195,0.366-22.363-4.327-22.363-4.327c-2.161,18.395,13.34,25.251,13.34,25.251
		c9.732,10.828-5.036,9.02-5.036,9.02c-9.732-0.378-5.787-9.387-5.787-9.387c-11.543-3.244-13.334-27.047-13.334-27.047
		s8.656,10.102,0.357-1.448c-8.298-11.544-2.16-16.231-2.16-16.231c6.124-3.972,7.578-9.014,7.578-9.014
		c-24.175-10.09-24.518-32.822-24.518-32.822c-1.454-6.13-3.62,0.372-3.62,0.372c4.672,34.626-21.646,49.054-21.646,49.054
		c10.096-6.142,6.144-28.851,6.144-28.851c-1.809-27.769,18.758-38.6,18.758-38.6c12.614-29.581,61.676-18.4,61.676-18.4
		c19.476-1.809,20.93-17.667,20.93-17.667c2.875-50.498,38.967-54.837,38.967-54.837L149.884,0z"/>
</g>
<g>
</g>
<g>
</g>
<g>
</g>
<g>
</g>
<g>
</g>
<g>
</g>
<g>
</g>
<g>
</g>
<g>
</g>
<g>
</g>
<g>
</g>
<g>
</g>
<g>
</g>
<g>
</g>
<g>
</g>
</svg>
